Coordinates
version=1
nRows=9
nColumns=63
inDegrees=yes

Units are S.I. units (second, meters, Newtons, ...)
If the header above contains a line with 'inDegrees', this indicates whether rotational values are in degrees (yes) or radians (no).

endheader
time	pelvis_tilt	pelvis_list	pelvis_rotation	pelvis_tx	pelvis_ty	pelvis_tz	hip_flexion_r	hip_adduction_r	hip_rotation_r	knee_angle_r	knee_angle_r_beta	ankle_angle_r	subtalar_angle_r	mtp_angle_r	hip_flexion_l	hip_adduction_l	hip_rotation_l	knee_angle_l	knee_angle_l_beta	ankle_angle_l	subtalar_angle_l	mtp_angle_l	L5_S1_Flex_Ext	L5_S1_Lat_Bending	L5_S1_axial_rotation	L4_L5_Flex_Ext	L4_L5_Lat_Bending	L4_L5_axial_rotation	L3_L4_Flex_Ext	L3_L4_Lat_Bending	L3_L4_axial_rotation	L2_L3_Flex_Ext	L2_L3_Lat_Bending	L2_L3_axial_rotation	L1_L2_Flex_Ext	L1_L2_Lat_Bending	L1_L2_axial_rotation	L1_T12_Flex_Ext	L1_T12_Lat_Bending	L1_T12_axial_rotation	Abs_r3	Abs_r2	Abs_r1	Abs_t1	Abs_t2	neck_flexion	neck_bending	neck_rotation	arm_flex_r	arm_add_r	arm_rot_r	elbow_flex_r	pro_sup_r	wrist_flex_r	wrist_dev_r	arm_flex_l	arm_add_l	arm_rot_l	elbow_flex_l	pro_sup_l	wrist_flex_l	wrist_dev_l
      7.50000000	    -41.16317233	     -2.68259367	     -0.87272872	     -0.18771038	      1.08873857	     -0.01581101	     83.67775074	     -1.49443303	     -4.48735843	     48.38577027	      0.84449100	      8.97991768	     -1.51494443	      0.00000000	    111.10120377	     -3.07646978	      9.53346455	    112.08550283	      1.95626107	     14.52841763	     -2.28831872	      0.00000000	     -0.08396042	      0.34015354	      0.30598646	     -0.15592290	      0.45240421	      0.32511061	     -0.13793858	      0.82704932	      0.32511061	     -0.09595837	      0.82704932	      0.26773815	     -0.07796565	      0.69364110	      0.24861400	     -0.04797498	      0.52689783	      0.22948985	     -0.59972089	      3.84788487	      1.70180490	      0.00000000	      0.00000000	     -0.00000000	      0.00000000	     -0.00000000	     61.51948473	     -7.47104624	     21.83141876	     33.51152444	     32.19656697	      0.00000000	      5.00000014	     64.01606028	     -3.16690397	     23.60631105	     24.70915080	     41.06722103	      0.00000000	      5.00000014
      7.50800000	    -41.12013223	     -2.22557789	     -0.78825276	     -0.18721569	      1.08889235	     -0.01610934	     82.83804627	     -1.63084840	     -4.23577945	     47.71538577	      0.83279059	      8.61598546	     -1.57844455	      0.00000000	    111.96322186	     -3.01342249	      9.10281348	    112.60585543	      1.96534293	     14.79440311	     -2.32860450	      0.00000000	     -0.08502621	      0.27610382	      0.26568138	     -0.15790218	      0.36721808	      0.28228647	     -0.13968957	      0.67131883	      0.28228647	     -0.09717646	      0.67131883	      0.23247121	     -0.07895534	      0.56303091	      0.21586612	     -0.04858398	      0.42768482	      0.19926104	     -0.60733375	      3.12334162	      1.47764014	      0.00000000	      0.00000000	     -0.00000000	      0.00000000	     -0.00000000	     61.38394272	     -7.25408239	     21.71168440	     33.46078685	     32.14017330	      0.00000000	      5.00000014	     63.99853329	     -3.38104459	     23.68254259	     24.82429828	     41.07956705	      0.00000000	      5.00000014
      7.51700000	    -41.07615345	     -1.24097438	     -0.79654747	     -0.18669916	      1.08903056	     -0.01563655	     82.23761330	     -1.67286324	     -3.17825085	     47.40744938	      0.82741608	      8.13642311	     -2.13061844	      0.00000000	    112.67211326	     -3.27355036	      8.15232429	    113.01736275	      1.97252509	     15.23635013	     -2.48652501	      0.00000000	     -0.08442538	      0.13569535	      0.23950894	     -0.15678637	      0.18047481	      0.25447825	     -0.13870246	      0.32992967	      0.25447825	     -0.09648977	      0.32992967	      0.20957032	     -0.07839741	      0.27670995	      0.19460101	     -0.04824066	      0.21019209	      0.17963170	     -0.60304205	      1.53501290	      1.33207686	      0.00000000	      0.00000000	     -0.00000000	      0.00000000	     -0.00000000	     61.04743348	     -6.72643276	     20.81602746	     33.37719202	     31.85256152	      0.00000000	      5.00000014	     64.03141910	     -3.83814649	     24.18930567	     25.13668253	     41.17795591	      0.00000000	      5.00000014
      7.52500000	    -41.03799944	     -0.45151961	     -0.76930011	     -0.18621520	      1.08926947	     -0.01530593	     81.58034505	     -1.80078249	     -2.54575058	     47.05850194	      0.82132580	      7.73533043	     -2.55636687	      0.00000000	    113.38091867	     -3.45481692	      7.36859794	    113.33212049	      1.97801865	     15.62083753	     -2.68006486	      0.00000000	     -0.08502965	      0.01996898	      0.21256051	     -0.15790856	      0.02655874	      0.22584554	     -0.13969521	      0.04855257	      0.22584554	     -0.09718038	      0.04855257	      0.18599045	     -0.07895853	      0.04072074	      0.17270541	     -0.04858594	      0.03093195	      0.15942038	     -0.60735827	      0.22589307	      1.18219779	      0.00000000	      0.00000000	     -0.00000000	      0.00000000	     -0.00000000	     60.67431050	     -6.22188666	     19.54340319	     33.45356640	     31.43473823	      0.00000000	      5.00000014	     64.18220457	     -4.24110592	     25.14829329	     25.18435625	     41.37770926	      0.00000000	      5.00000014
      7.53300000	    -40.99490339	      0.17563698	     -0.78902779	     -0.18575315	      1.08949997	     -0.01501472	     80.92822296	     -1.91825593	     -2.18511806	     46.77726037	      0.81641721	      7.53512877	     -2.74545897	      0.00000000	    114.05498831	     -3.65519374	      6.73111549	    113.56469124	      1.98207778	     16.12050500	     -2.82758561	      0.00000000	     -0.08492033	     -0.07397605	      0.19228868	     -0.15770554	     -0.09838815	      0.20430672	     -0.13951560	     -0.17986537	      0.20430672	     -0.09705544	     -0.17986537	      0.16825259	     -0.07885701	     -0.15085197	      0.15623455	     -0.04852347	     -0.11458891	      0.14421651	     -0.60657740	     -0.83683190	      1.06945194	      0.00000000	      0.00000000	     -0.00000000	      0.00000000	     -0.00000000	     60.43708797	     -5.85277630	     18.95060735	     33.42604498	     31.18491492	      0.00000000	      5.00000014	     64.25888817	     -4.58247593	     25.79652701	     25.29783594	     41.51265691	      0.00000000	      5.00000014
      7.54200000	    -40.96043117	      0.82565838	     -0.82447106	     -0.18535096	      1.08978703	     -0.01456753	     80.33363660	     -2.02734208	     -1.77802802	     46.59093422	      0.81316520	      7.29670344	     -3.01494823	      0.00000000	    114.67507735	     -3.89639739	      6.08376744	    113.68439842	      1.98416706	     16.62111031	     -2.90486187	      0.00000000	     -0.08601911	     -0.17258612	      0.18583414	     -0.15974609	     -0.22953954	      0.19744877	     -0.14132080	     -0.41962590	      0.19744877	     -0.09831124	     -0.41962590	      0.16260487	     -0.07987735	     -0.35193762	      0.15099024	     -0.04915132	     -0.26733590	      0.13937560	     -0.61442590	     -1.95232873	      1.03355372	      0.00000000	      0.00000000	     -0.00000000	      0.00000000	     -0.00000000	     60.07223718	     -5.37821917	     17.64181887	     33.54667203	     30.49224343	      0.00000000	      5.00000014	     64.56140478	     -5.02068557	     27.65502513	     25.21296690	     41.88988109	      0.00000000	      5.00000014
      7.55000000	    -40.93341439	      1.17491660	     -0.91749755	     -0.18502881	      1.09003205	     -0.01429997	     79.71900817	     -2.09771948	     -1.83323669	     46.43041063	      0.81036354	      7.23479116	     -3.07269465	      0.00000000	    115.32047023	     -4.10415941	      5.70737329	    113.71807394	      1.98475481	     17.08484957	     -2.98311764	      0.00000000	     -0.08669683	     -0.22851522	      0.18452671	     -0.16100468	     -0.30392524	      0.19605963	     -0.14243422	     -0.55561191	      0.19605963	     -0.09908580	     -0.55561191	      0.16146087	     -0.08050667	     -0.46598824	      0.14992795	     -0.04953857	     -0.35397008	      0.13839503	     -0.61926677	     -2.58500988	      1.02628222	      0.00000000	      0.00000000	     -0.00000000	      0.00000000	     -0.00000000	     59.96691845	     -5.21755215	     17.65098916	     33.49876894	     30.44749214	      0.00000000	      5.00000014	     64.57735765	     -5.17202933	     27.71863757	     25.29910065	     41.89919573	      0.00000000	      5.00000014
      7.55800000	    -40.91814401	      1.75511112	     -0.98897046	     -0.18480788	      1.09029586	     -0.01374676	     79.27974204	     -2.15413267	     -1.33243390	     46.53173786	      0.81213203	      7.12391011	     -3.24278336	      0.00000000	    115.83213201	     -4.41227506	      5.10611987	    113.60469621	      1.98277599	     17.81347162	     -2.83228013	      0.00000000	     -0.08703238	     -0.31756182	      0.18902206	     -0.16162784	     -0.42235721	      0.20083594	     -0.14298550	     -0.77211980	      0.20083594	     -0.09946931	     -0.77211980	      0.16539431	     -0.08081827	     -0.64757205	      0.15358043	     -0.04973030	     -0.49190325	      0.14176655	     -0.62166360	     -3.59232277	      1.05128401	      0.00000000	      0.00000000	     -0.00000000	      0.00000000	     -0.00000000	     59.76236724	     -4.96699896	     17.19951463	     33.51355494	     30.21422316	      0.00000000	      5.00000014	     64.69109125	     -5.39132282	     28.14287472	     25.35831853	     41.97953188	      0.00000000	      5.00000014
      7.56700000	    -40.93637852	      1.83959169	     -1.07211735	     -0.18477927	      1.09054665	     -0.01352733	     78.82180129	     -2.13030915	     -1.38645039	     46.63432678	      0.81392255	      7.10030167	     -3.24513910	      0.00000000	    116.49039409	     -4.51011394	      5.00724120	    113.42170764	      1.97958224	     18.04843041	     -2.84735399	      0.00000000	     -0.08599065	     -0.33645228	      0.19179398	     -0.15969323	     -0.44748153	      0.20378111	     -0.14127404	     -0.81805007	      0.20378111	     -0.09827871	     -0.81805007	      0.16781973	     -0.07985092	     -0.68609349	      0.15583261	     -0.04913506	     -0.52116458	      0.14384549	     -0.61422261	     -3.80601546	      1.06670059	      0.00000000	      0.00000000	     -0.00000000	      0.00000000	     -0.00000000	     59.70646363	     -4.88715844	     17.18414485	     33.53614370	     30.22013069	      0.00000000	      5.00000014	     64.71493793	     -5.45974918	     28.16297157	     25.39242464	     41.98740688	      0.00000000	      5.00000014
